<?xml version="1.0" encoding="UTF-8"?>
<svg xmlns="http://www.w3.org/2000/svg" xmlns:xlink="http://www.w3.org/1999/xlink" width="50px" height="50px" viewBox="0 0 50 50" version="1.1">
<g id="surface1">
<path style=" stroke:none;fill-rule:nonzero;fill:rgb(0%,0%,0%);fill-opacity:1;" d="M 22.65625 0.929688 C 19.382812 1.476562 16.414062 3.007812 14.0625 5.371094 C 10.976562 8.457031 9.453125 12.089844 9.460938 16.359375 C 9.460938 18.875 9.980469 21.074219 11.09375 23.289062 C 12.070312 25.253906 12.890625 26.257812 15.878906 29.101562 C 17.117188 30.28125 17.898438 31.21875 18.898438 32.714844 C 19.953125 34.296875 20.65625 35.742188 22.21875 39.617188 C 23.398438 42.539062 23.691406 43.164062 23.964844 43.429688 C 24.578125 44.003906 25.476562 43.976562 26.074219 43.378906 C 26.367188 43.078125 26.660156 42.429688 27.832031 39.5 C 29.394531 35.617188 29.941406 34.453125 31.007812 32.859375 C 32.03125 31.328125 33.085938 30.097656 34.773438 28.496094 C 35.59375 27.726562 36.59375 26.699219 37 26.210938 C 38.78125 24.070312 40 21.320312 40.429688 18.457031 C 40.566406 17.53125 40.566406 15.117188 40.429688 14.160156 C 39.539062 7.859375 35.046875 2.8125 28.953125 1.242188 C 28.417969 1.101562 27.636719 0.9375 27.21875 0.890625 C 26.203125 0.75 23.574219 0.773438 22.65625 0.929688 Z M 26.347656 9.914062 C 27.96875 10.292969 29.433594 11.476562 30.15625 12.988281 C 30.605469 13.945312 30.761719 14.578125 30.761719 15.527344 C 30.761719 16.476562 30.605469 17.109375 30.15625 18.054688 C 29.492188 19.445312 28.242188 20.515625 26.660156 21.054688 C 26.257812 21.191406 25.839844 21.242188 25 21.242188 C 24.160156 21.242188 23.742188 21.191406 23.339844 21.054688 C 21.757812 20.515625 20.507812 19.445312 19.84375 18.054688 C 19.382812 17.101562 19.238281 16.476562 19.238281 15.5 C 19.238281 13.953125 19.8125 12.609375 20.957031 11.453125 C 21.699219 10.695312 22.664062 10.148438 23.671875 9.902344 C 24.367188 9.734375 25.617188 9.734375 26.347656 9.914062 Z M 26.347656 9.914062 "/>
<path style=" stroke:none;fill-rule:nonzero;fill:rgb(0%,0%,0%);fill-opacity:1;" d="M 17.375 43.484375 C 16.648438 43.976562 16.398438 44.8125 16.757812 45.578125 C 16.933594 45.9375 17.820312 46.726562 18.769531 47.375 C 21.914062 49.511719 26.289062 49.835938 29.765625 48.195312 C 31.296875 47.46875 32.921875 46.242188 33.242188 45.566406 C 33.742188 44.511719 32.988281 43.261719 31.84375 43.261719 C 31.335938 43.261719 31.164062 43.359375 30.203125 44.160156 C 29.34375 44.875 28.300781 45.429688 27.195312 45.761719 C 26.425781 45.984375 26.152344 46.023438 25 46.023438 C 23.859375 46.023438 23.5625 45.984375 22.820312 45.761719 C 21.5625 45.382812 20.507812 44.8125 19.726562 44.09375 C 18.796875 43.222656 18.046875 43.027344 17.375 43.484375 Z M 17.375 43.484375 "/>
</g>
</svg>
